HIERARCHY
ROOT Hips
{
  OFFSET 5.80788e-005 67.184 3.4734
  CHANNELS 6 Xposition Yposition Zposition Zrotation Xrotation Yrotation
  JOINT Chest
  {
    OFFSET 0 8.7983 -4.7612
    CHANNELS 6 Xposition Yposition Zposition Zrotation Xrotation Yrotation
    JOINT Chest2
    {
      OFFSET 0 8.0291 0.4195
      CHANNELS 6 Xposition Yposition Zposition Zrotation Xrotation Yrotation
      JOINT Chest3
      {
        OFFSET 0 9.9351 -2.2114
        CHANNELS 6 Xposition Yposition Zposition Zrotation Xrotation Yrotation
        JOINT Neck
        {
          OFFSET 0 22.3885 -0.4656
          CHANNELS 6 Xposition Yposition Zposition Zrotation Xrotation Yrotation
          JOINT Head
          {
            OFFSET -0.0001 12.643 3.4389
            CHANNELS 6 Xposition Yposition Zposition Zrotation Xrotation Yrotation
            End Site
            {
              OFFSET 0.0001 17.6655 0.5274
            }
          }
        }
        JOINT LeftCollar
        {
          OFFSET 2.2603 21.606 7.4023
          CHANNELS 6 Xposition Yposition Zposition Zrotation Xrotation Yrotation
          JOINT LeftShoulder
          {
            OFFSET 13.5163 -1.1332 -5.0146
            CHANNELS 6 Xposition Yposition Zposition Zrotation Xrotation Yrotation
            JOINT LeftElbow
            {
              OFFSET -0.0995 -28.05 -0.2431
              CHANNELS 6 Xposition Yposition Zposition Zrotation Xrotation Yrotation
              JOINT LeftWrist
              {
                OFFSET 0.0679 -23.3996 -0.1402
                CHANNELS 6 Xposition Yposition Zposition Zrotation Xrotation Yrotation
                JOINT LeftFinger1
                {
                  OFFSET 0.7932 -9.069 2.5189
                  CHANNELS 6 Xposition Yposition Zposition Zrotation Xrotation Yrotation
                  JOINT LeftFinger11
                  {
                    OFFSET -0.8272 -3.3923 0.5977
                    CHANNELS 6 Xposition Yposition Zposition Zrotation Xrotation Yrotation
                    JOINT LeftFinger12
                    {
                      OFFSET -0.5649 -2.3158 0.4082
                      CHANNELS 6 Xposition Yposition Zposition Zrotation Xrotation Yrotation
                      End Site
                      {
                        OFFSET -0.4919 -1.6479 0.2673
                      }
                    }
                  }
                }
                JOINT LeftFinger2
                {
                  OFFSET 0.9159 -9.2044 0.2193
                  CHANNELS 6 Xposition Yposition Zposition Zrotation Xrotation Yrotation
                  JOINT LeftFinger21
                  {
                    OFFSET 0.0117 -4.1944 -0.0248
                    CHANNELS 6 Xposition Yposition Zposition Zrotation Xrotation Yrotation
                    JOINT LeftFinger22
                    {
                      OFFSET 0.0071 -2.3249 -0.0142
                      CHANNELS 6 Xposition Yposition Zposition Zrotation Xrotation Yrotation
                      End Site
                      {
                        OFFSET -0.1475 -2.0882 0.0028
                      }
                    }
                  }
                }
                JOINT LeftFinger3
                {
                  OFFSET 0.6113 -8.7231 -2.0637
                  CHANNELS 6 Xposition Yposition Zposition Zrotation Xrotation Yrotation
                  JOINT LeftFinger31
                  {
                    OFFSET -0.1927 -3.8059 -0.2383
                    CHANNELS 6 Xposition Yposition Zposition Zrotation Xrotation Yrotation
                    JOINT LeftFinger32
                    {
                      OFFSET -0.1091 -2.1688 -0.1362
                      CHANNELS 6 Xposition Yposition Zposition Zrotation Xrotation Yrotation
                      End Site
                      {
                        OFFSET -0.2358 -1.9176 -0.0906
                      }
                    }
                  }
                }
                JOINT LeftFinger4
                {
                  OFFSET -0.6151 -8.0947 -3.5641
                  CHANNELS 6 Xposition Yposition Zposition Zrotation Xrotation Yrotation
                  JOINT LeftFinger41
                  {
                    OFFSET -0.4882 -2.341 -0.6462
                    CHANNELS 6 Xposition Yposition Zposition Zrotation Xrotation Yrotation
                    JOINT LeftFinger42
                    {
                      OFFSET -0.3575 -1.7167 -0.4742
                      CHANNELS 6 Xposition Yposition Zposition Zrotation Xrotation Yrotation
                      End Site
                      {
                        OFFSET -0.4187 -1.5237 -0.3496
                      }
                    }
                  }
                }
                JOINT LeftFinger0
                {
                  OFFSET -1.42 -1.8761 1.4223
                  CHANNELS 6 Xposition Yposition Zposition Zrotation Xrotation Yrotation
                  JOINT LeftFinger01
                  {
                    OFFSET -1.1471 -3.4929 2.6334
                    CHANNELS 6 Xposition Yposition Zposition Zrotation Xrotation Yrotation
                    JOINT LeftFinger02
                    {
                      OFFSET -0.823 -2.3 1.6571
                      CHANNELS 6 Xposition Yposition Zposition Zrotation Xrotation Yrotation
                      End Site
                      {
                        OFFSET -0.5822 -1.6914 1.1582
                      }
                    }
                  }
                }
              }
            }
          }
        }
        JOINT RightCollar
        {
          OFFSET -2.2603 21.606 7.4023
          CHANNELS 6 Xposition Yposition Zposition Zrotation Xrotation Yrotation
          JOINT RightShoulder
          {
            OFFSET -13.5187 -1.1334 -5.0155
            CHANNELS 6 Xposition Yposition Zposition Zrotation Xrotation Yrotation
            JOINT RightElbow
            {
              OFFSET 0.0994 -28.0499 -0.2431
              CHANNELS 6 Xposition Yposition Zposition Zrotation Xrotation Yrotation
              JOINT RightWrist
              {
                OFFSET -0.0679 -23.3996 -0.1402
                CHANNELS 6 Xposition Yposition Zposition Zrotation Xrotation Yrotation
                JOINT RightFinger1
                {
                  OFFSET -0.7932 -9.0691 2.5189
                  CHANNELS 6 Xposition Yposition Zposition Zrotation Xrotation Yrotation
                  JOINT RightFinger11
                  {
                    OFFSET 0.8272 -3.3923 0.5977
                    CHANNELS 6 Xposition Yposition Zposition Zrotation Xrotation Yrotation
                    JOINT RightFinger12
                    {
                      OFFSET 0.565 -2.3158 0.4082
                      CHANNELS 6 Xposition Yposition Zposition Zrotation Xrotation Yrotation
                      End Site
                      {
                        OFFSET 0.4919 -1.6479 0.2673
                      }
                    }
                  }
                }
                JOINT RightFinger2
                {
                  OFFSET -0.916 -9.2044 0.2193
                  CHANNELS 6 Xposition Yposition Zposition Zrotation Xrotation Yrotation
                  JOINT RightFinger21
                  {
                    OFFSET -0.0117 -4.1944 -0.0248
                    CHANNELS 6 Xposition Yposition Zposition Zrotation Xrotation Yrotation
                    JOINT RightFinger22
                    {
                      OFFSET -0.0071 -2.3249 -0.0142
                      CHANNELS 6 Xposition Yposition Zposition Zrotation Xrotation Yrotation
                      End Site
                      {
                        OFFSET 0.1475 -2.0882 0.0028
                      }
                    }
                  }
                }
                JOINT RightFinger3
                {
                  OFFSET -0.6113 -8.7231 -2.0637
                  CHANNELS 6 Xposition Yposition Zposition Zrotation Xrotation Yrotation
                  JOINT RightFinger31
                  {
                    OFFSET 0.1927 -3.8059 -0.2383
                    CHANNELS 6 Xposition Yposition Zposition Zrotation Xrotation Yrotation
                    JOINT RightFinger32
                    {
                      OFFSET 0.1091 -2.1688 -0.1362
                      CHANNELS 6 Xposition Yposition Zposition Zrotation Xrotation Yrotation
                      End Site
                      {
                        OFFSET 0.2358 -1.9176 -0.0906
                      }
                    }
                  }
                }
                JOINT RightFinger4
                {
                  OFFSET 0.6151 -8.0947 -3.564
                  CHANNELS 6 Xposition Yposition Zposition Zrotation Xrotation Yrotation
                  JOINT RightFinger41
                  {
                    OFFSET 0.4882 -2.341 -0.6462
                    CHANNELS 6 Xposition Yposition Zposition Zrotation Xrotation Yrotation
                    JOINT RightFinger42
                    {
                      OFFSET 0.3574 -1.7166 -0.4742
                      CHANNELS 6 Xposition Yposition Zposition Zrotation Xrotation Yrotation
                      End Site
                      {
                        OFFSET 0.4187 -1.5237 -0.3496
                      }
                    }
                  }
                }
                JOINT RightFinger0
                {
                  OFFSET 1.4199 -1.8761 1.4221
                  CHANNELS 6 Xposition Yposition Zposition Zrotation Xrotation Yrotation
                  JOINT RightFinger01
                  {
                    OFFSET 1.1472 -3.4929 2.6336
                    CHANNELS 6 Xposition Yposition Zposition Zrotation Xrotation Yrotation
                    JOINT RightFinger02
                    {
                      OFFSET 0.8229 -2.3 1.6571
                      CHANNELS 6 Xposition Yposition Zposition Zrotation Xrotation Yrotation
                      End Site
                      {
                        OFFSET 0.5822 -1.6914 1.1582
                      }
                    }
                  }
                }
              }
            }
          }
        }
      }
    }
  }
  JOINT RightHip
  {
    OFFSET -9.412 3.9771 -0.7758
    CHANNELS 6 Xposition Yposition Zposition Zrotation Xrotation Yrotation
    JOINT RightKnee
    {
      OFFSET -0.7531 -40.938 0
      CHANNELS 6 Xposition Yposition Zposition Zrotation Xrotation Yrotation
      JOINT RightAnkle
      {
        OFFSET 0 -40.1986 0
        CHANNELS 6 Xposition Yposition Zposition Zrotation Xrotation Yrotation
        JOINT RightToe
        {
          OFFSET 0 -4.4182 9.239
          CHANNELS 6 Xposition Yposition Zposition Zrotation Xrotation Yrotation
          End Site
          {
            OFFSET 0 0 6.1981
          }
        }
      }
    }
  }
  JOINT LeftHip
  {
    OFFSET 9.4119 3.9773 -0.7758
    CHANNELS 6 Xposition Yposition Zposition Zrotation Xrotation Yrotation
    JOINT LeftKnee
    {
      OFFSET 0.7532 -40.9383 0
      CHANNELS 6 Xposition Yposition Zposition Zrotation Xrotation Yrotation
      JOINT LeftAnkle
      {
        OFFSET 0 -40.1986 0
        CHANNELS 6 Xposition Yposition Zposition Zrotation Xrotation Yrotation
        JOINT LeftToe
        {
          OFFSET 0 -4.4182 9.239
          CHANNELS 6 Xposition Yposition Zposition Zrotation Xrotation Yrotation
          End Site
          {
            OFFSET 0 0 6.1981
          }
        }
      }
    }
  }
}
MOTION
Frames:	4
Frame Time:	0.0333333
5.80788e-005 67.184 3.4734 0 0 -0 0 8.7983 -4.7612 0 0 -0 0 8.0291 0.4195 0 0 -0 0 9.9351 -2.2114 0 0 -0 0 22.3885 -0.4656 0 0 -0 -0.0001 12.643 3.4389 0 0 -0 2.2603 21.606 7.4023 0 0 -12.5014 13.5163 -1.1332 -5.0146 88.1196 14.2451 10.6914 -0.0995 -28.05 -0.2431 -0.00160068 -0.00239207 0.000740045 0.0679 -23.3996 -0.1402 -8.4365e-005 7.00714e-005 -9.52055e-007 0.7932 -9.069 2.5189 9.93923e-017 -1.98785e-016 -1.59028e-015 -0.8272 -3.3923 0.5977 9.93923e-017 -5.96354e-016 -1.59028e-015 -0.5649 -2.3158 0.4082 -9.93923e-017 -5.96354e-016 -1.59028e-015 0.9159 -9.2044 0.2193 9.93923e-017 -1.98785e-016 -1.59028e-015 0.0117 -4.1944 -0.0248 -0.0128176 0.00232552 8.52707e-005 0.0071 -2.3249 -0.0142 9.93923e-017 5.96354e-016 -0 0.6113 -8.7231 -2.0637 9.93923e-017 -1.98785e-016 -1.59028e-015 -0.1927 -3.8059 -0.2383 -0.0160551 0.00299681 0.000857156 -0.1091 -2.1688 -0.1362 -2.48481e-016 0 3.18055e-015 -0.6151 -8.0947 -3.5641 9.93923e-017 -1.98785e-016 -1.59028e-015 -0.4882 -2.341 -0.6462 -0.0125865 0.0031206 0.00282719 -0.3575 -1.7167 -0.4742 0 1.98785e-016 -0 -1.42 -1.8761 1.4223 9.93923e-017 -1.98785e-016 -1.59028e-015 -1.1471 -3.4929 2.6334 9.93923e-017 -5.96354e-016 -1.59028e-015 -0.823 -2.3 1.6571 -9.93923e-017 -5.96354e-016 -1.59028e-015 -2.2603 21.606 7.4023 -0.865644 0.16582 7.03859 -13.5187 -1.1334 -5.0155 -88.0329 10.2057 -10.5567 0.0994 -28.0499 -0.2431 0.0015593 -0.00248883 -0.000788628 -0.0679 -23.3996 -0.1402 7.87605e-005 4.10553e-005 1.24965e-005 -0.7932 -9.0691 2.5189 -3.97569e-016 -7.95139e-016 3.18055e-015 0.8272 -3.3923 0.5977 -1.98785e-016 -3.97569e-016 3.18055e-015 0.565 -2.3158 0.4082 -1.98785e-016 0 3.18055e-015 -0.916 -9.2044 0.2193 -3.97569e-016 -7.95139e-016 3.18055e-015 -0.0117 -4.1944 -0.0248 0.0129473 0.00231697 -8.70038e-005 -0.0071 -2.3249 -0.0142 9.93923e-017 -7.95139e-016 1.59028e-015 -0.6113 -8.7231 -2.0637 -3.97569e-016 -7.95139e-016 3.18055e-015 0.1927 -3.8059 -0.2383 0.0163314 0.00303369 -0.000872333 0.1091 -2.1688 -0.1362 3.97569e-016 7.95139e-016 -3.18055e-015 0.6151 -8.0947 -3.564 -3.97569e-016 -7.95139e-016 3.18055e-015 0.4882 -2.341 -0.6462 0.0145763 0.00367772 -0.00326275 0.3574 -1.7166 -0.4742 9.93923e-017 -3.97569e-016 -0 1.4199 -1.8761 1.4221 -3.97569e-016 -7.95139e-016 3.18055e-015 1.1472 -3.4929 2.6336 -1.98785e-016 -3.97569e-016 3.18055e-015 0.8229 -2.3 1.6571 -1.98785e-016 0 3.18055e-015 -9.412 3.9771 -0.7758 3.42485 1.36937 -0.0640303 -0.7531 -40.938 0 0.000136572 0.69354 0.00145564 1.77636e-015 -40.1986 -1.11022e-016 -3.42573 -2.06297 -0.0607933 8.88178e-016 -4.4182 9.239 -3.19502e-024 0 -1.48106e-024 9.4119 3.9773 -0.7758 -3.42498 1.36123 0.0639712 0.7532 -40.9383 2.22045e-016 -6.769e-005 0.712612 -0.0012277 8.88179e-016 -40.1986 0 3.42582 -2.07388 0.0612819 -8.88178e-016 -4.4182 9.239 2.55305e-023 0 -2.31416e-026 
27.0373 23.6745 -58.5937 113.312 54.832 -179.975 0 8.7983 -4.7612 0.677831 2.09836 -0.344664 0 8.0291 0.4195 1.36968 4.19245 -0.714939 1.77636e-015 9.9351 -2.2114 1.36967 4.19245 -0.714931 1.77636e-015 22.3885 -0.4656 -0.00842431 30.2951 -3.25905e-005 -0.0001 12.643 3.4389 0.116576 3.26942 7.38978 2.2603 21.606 7.4023 -14.7164 0.0296635 -49.8306 13.5163 -1.1332 -5.0146 62.3555 0.529998 29.8647 -0.0995 -28.05 -0.2431 7.54835 -19.6409 11.0884 0.0679 -23.3996 -0.1402 13.8917 -21.0115 13.2529 0.7932 -9.069 2.5189 -3.18055e-015 6.36111e-015 -0 -0.8272 -3.3923 0.5977 -3.18055e-015 0 6.36111e-015 -0.5649 -2.3158 0.4082 -3.18055e-015 9.54166e-015 -3.18055e-015 0.9159 -9.2044 0.2193 -3.18055e-015 6.36111e-015 -0 0.0117 -4.1944 -0.0248 -0.0127955 0.00231607 8.52367e-005 0.0071 -2.3249 -0.0142 -6.36111e-015 3.18055e-015 6.36111e-015 0.6113 -8.7231 -2.0637 -3.18055e-015 6.36111e-015 -0 -0.1927 -3.8059 -0.2383 -0.0160649 0.00300421 0.000852173 -0.1091 -2.1688 -0.1362 7.15517e-006 -6.97275e-006 9.08923e-006 -0.6151 -8.0947 -3.5641 -3.18055e-015 6.36111e-015 -0 -0.4882 -2.341 -0.6462 -0.0126132 0.00312543 0.00284241 -0.3575 -1.7167 -0.4742 -9.54166e-015 3.18055e-015 -0 -1.42 -1.8761 1.4223 -3.18055e-015 6.36111e-015 -0 -1.1471 -3.4929 2.6334 -3.18055e-015 0 6.36111e-015 -0.823 -2.3 1.6571 -3.18055e-015 9.54166e-015 -3.18055e-015 -2.2603 21.606 7.4023 -1.13652 7.20653 21.9574 -13.5187 -1.1334 -5.0155 -51.127 -6.40073 8.22577 0.0994 -28.0499 -0.2431 91.8854 -76.1461 52.2672 -0.0679 -23.3996 -0.1402 30.9071 2.0872 -7.75499 -0.7932 -9.0691 2.5189 -1.05025e-005 1.30083e-006 -2.77232e-006 0.8272 -3.3923 0.5977 -5.29669e-031 -4.77083e-015 -6.36111e-015 0.565 -2.3158 0.4082 -1.53317e-007 8.10209e-006 -1.59469e-005 -0.916 -9.2044 0.2193 -1.05025e-005 1.30083e-006 -2.77232e-006 -0.0117 -4.1944 -0.0248 0.0129917 0.00232851 -9.01687e-005 -0.0071 -2.3249 -0.0142 -1.43583e-006 4.03193e-007 -3.35896e-006 -0.6113 -8.7231 -2.0637 -1.05025e-005 1.30083e-006 -2.77232e-006 0.1927 -3.8059 -0.2383 0.0163482 0.00305207 -0.000877309 0.1091 -2.1688 -0.1362 -1.46756e-006 -5.62198e-006 -5.76656e-006 0.6151 -8.0947 -3.564 -1.05025e-005 1.30083e-006 -2.77232e-006 0.4882 -2.341 -0.6462 0.0145394 0.00365397 -0.0032579 0.3574 -1.7166 -0.4742 -6.31813e-006 5.93775e-006 -5.25832e-006 1.4199 -1.8761 1.4221 -1.05025e-005 1.30083e-006 -2.77232e-006 1.1472 -3.4929 2.6336 -5.29669e-031 -4.77083e-015 -6.36111e-015 0.8229 -2.3 1.6571 -1.53317e-007 8.10209e-006 -1.59469e-005 -9.412 3.9771 -0.7758 0.776915 -15.0102 3.87919 -0.7531 -40.938 3.55271e-015 32.6044 37.3583 -30.1782 0 -40.1986 0 -7.04907 17.7857 -9.29513 -5.32907e-015 -4.4182 9.239 -1.97843e-007 3.94311e-007 -1.68333e-006 9.4119 3.9773 -0.7758 1.40984 20.2286 0.273603 0.7532 -40.9383 3.55271e-015 -3.40346 49.5323 4.10508 4.44089e-015 -40.1986 1.42109e-014 4.99762 3.21513 0.662198 -3.55271e-015 -4.4182 9.239 -8.0111e-006 -1.35599e-006 7.99579e-008 
44.3562 -1.7527 -75.5635 83.3333 -1.49356 -179.979 0 8.7983 -4.7612 0.995497 2.99111 -0.51807 0 8.0291 0.4195 2.02218 5.97263 -1.09041 0 9.9351 -2.2114 2.0222 5.97263 -1.09041 0 22.3885 -0.4656 -0.0123052 44.1514 1.50545e-005 -0.0001 12.643 3.4389 -0.106456 4.59529 10.7747 2.2603 21.606 7.4023 -21.4444 0.310955 -66.6993 13.5163 -1.1332 -5.0146 51.739 -6.24338 38.2002 -0.0995 -28.05 -0.2431 10.8403 -28.3691 15.6901 0.0679 -23.3996 -0.1402 20.1938 -30.3932 18.9847 0.7932 -9.069 2.5189 -0 0 5.96354e-016 -0.8272 -3.3923 0.5977 1.59028e-015 -1.59028e-015 7.95139e-016 -0.5649 -2.3158 0.4082 -3.31043e-032 1.59028e-015 1.19271e-015 0.9159 -9.2044 0.2193 -0 0 5.96354e-016 0.0117 -4.1944 -0.0248 -0.012772 0.00232517 8.36499e-005 0.0071 -2.3249 -0.0142 1.10348e-032 -1.59028e-015 3.97569e-016 0.6113 -8.7231 -2.0637 -0 0 5.96354e-016 -0.1927 -3.8059 -0.2383 -0.016054 0.00298742 0.000865079 -0.1091 -2.1688 -0.1362 -1.59028e-015 0 7.95139e-016 -0.6151 -8.0947 -3.5641 -0 0 5.96354e-016 -0.4882 -2.341 -0.6462 -0.0125817 0.00312561 0.00283756 -0.3575 -1.7167 -0.4742 -1.59028e-015 0 5.96354e-016 -1.42 -1.8761 1.4223 -0 0 5.96354e-016 -1.1471 -3.4929 2.6334 1.59028e-015 -1.59028e-015 7.95139e-016 -0.823 -2.3 1.6571 -3.31043e-032 1.59028e-015 1.19271e-015 -2.2603 21.606 7.4023 -2.42939 10.1706 28.8137 -13.5187 -1.1334 -5.0155 -35.258 -14.819 16.8169 0.0994 -28.0499 -0.2431 -79.4149 -64.5955 -134.183 -0.0679 -23.3996 -0.1402 44.8326 2.86964 -12.2121 -0.7932 -9.0691 2.5189 -6.36111e-015 -4.77083e-015 -0 0.8272 -3.3923 0.5977 -6.36111e-015 0 3.18055e-015 0.565 -2.3158 0.4082 -6.36111e-015 -3.18055e-015 -0 -0.916 -9.2044 0.2193 -6.36111e-015 -4.77083e-015 -0 -0.0117 -4.1944 -0.0248 0.0128787 0.00230268 -9.79358e-005 -0.0071 -2.3249 -0.0142 6.36111e-015 -1.59028e-015 9.54166e-015 -0.6113 -8.7231 -2.0637 -6.36111e-015 -4.77083e-015 -0 0.1927 -3.8059 -0.2383 0.0163931 0.00304348 -0.000882367 0.1091 -2.1688 -0.1362 6.36111e-015 1.11319e-014 3.18055e-015 0.6151 -8.0947 -3.564 -6.36111e-015 -4.77083e-015 -0 0.4882 -2.341 -0.6462 0.0145612 0.00367708 -0.0032741 0.3574 -1.7166 -0.4742 5.29669e-031 -9.54166e-015 3.18055e-015 1.4199 -1.8761 1.4221 -6.36111e-015 -4.77083e-015 -0 1.1472 -3.4929 2.6336 -6.36111e-015 0 3.18055e-015 0.8229 -2.3 1.6571 -6.36111e-015 -3.18055e-015 -0 -9.412 3.9771 -0.7758 0.67565 -23.6751 5.88153 -0.7531 -40.938 0 64.9995 46.8247 -56.1036 1.06581e-014 -40.1986 -1.42109e-014 -7.01401 25.9004 -13.8957 0 -4.4182 9.239 -3.18055e-015 1.11319e-014 1.59028e-015 9.4119 3.9773 -0.7758 3.52832 30.2569 0.331207 0.7532 -40.9383 -1.42109e-014 -8.61894 68.2793 9.18742 1.33227e-015 -40.1986 0 5.866 7.17509 0.938687 1.22125e-015 -4.4182 9.239 4.77083e-015 0 -1.16289e-014 
41.1425 4.43917 -72.259 89.9956 11.0232 -179.98 -8.88178e-016 8.7983 -4.7612 0.922871 2.6851 -0.470337 0 8.0291 0.4195 1.8709 5.36218 -0.985592 -8.88179e-016 9.9351 -2.2114 1.87088 5.36217 -0.98559 -8.88179e-016 22.3885 -0.4656 -0.0114161 41.5695 -2.8345e-006 -0.0001 12.643 3.4389 -0.0466777 4.07785 10.1117 2.2603 21.606 7.4023 -20.2639 0.942473 -63.1112 13.5163 -1.1332 -5.0146 54.43 -4.39421 36.4216 -0.0995 -28.05 -0.2431 10.1741 -26.2639 14.7272 0.0679 -23.3996 -0.1402 18.7923 -28.3143 17.7247 0.7932 -9.069 2.5189 1.59028e-015 0 -7.95139e-016 -0.8272 -3.3923 0.5977 -1.59028e-015 -6.36111e-015 -7.95139e-016 -0.5649 -2.3158 0.4082 1.59028e-015 -3.18055e-015 -0 0.9159 -9.2044 0.2193 1.59028e-015 0 -7.95139e-016 0.0117 -4.1944 -0.0248 -0.0127949 0.0023205 8.91667e-005 0.0071 -2.3249 -0.0142 1.76556e-031 6.36111e-015 -1.59028e-015 0.6113 -8.7231 -2.0637 1.59028e-015 0 -7.95139e-016 -0.1927 -3.8059 -0.2383 -0.0160737 0.00300912 0.000863847 -0.1091 -2.1688 -0.1362 -1.59028e-015 3.18055e-015 -3.97569e-016 -0.6151 -8.0947 -3.5641 1.59028e-015 0 -7.95139e-016 -0.4882 -2.341 -0.6462 -0.0126086 0.00313208 0.00283477 -0.3575 -1.7167 -0.4742 -4.77083e-015 0 -3.97569e-016 -1.42 -1.8761 1.4223 1.59028e-015 0 -7.95139e-016 -1.1471 -3.4929 2.6334 -1.59028e-015 -6.36111e-015 -7.95139e-016 -0.823 -2.3 1.6571 1.59028e-015 -3.18055e-015 -0 -2.2603 21.606 7.4023 -1.98837 9.97727 27.2105 -13.5187 -1.1334 -5.0155 -38.7542 -12.9116 14.8979 0.0994 -28.0499 -0.2431 -90.5747 -73.3121 -142.259 -0.0679 -23.3996 -0.1402 41.7376 2.71792 -11.1724 -0.7932 -9.0691 2.5189 -3.18055e-015 -1.11319e-014 3.18055e-015 0.8272 -3.3923 0.5977 -3.18055e-015 -4.77083e-015 3.18055e-015 0.565 -2.3158 0.4082 3.18055e-015 -7.95139e-015 -6.36111e-015 -0.916 -9.2044 0.2193 -3.18055e-015 -1.11319e-014 3.18055e-015 -0.0117 -4.1944 -0.0248 0.0129813 0.00232164 -8.83146e-005 -0.0071 -2.3249 -0.0142 3.18055e-015 6.36111e-015 3.18055e-015 -0.6113 -8.7231 -2.0637 -3.18055e-015 -1.11319e-014 3.18055e-015 0.1927 -3.8059 -0.2383 0.0162306 0.0030155 -0.000867591 0.1091 -2.1688 -0.1362 3.18055e-015 -2.38542e-015 3.18055e-015 0.6151 -8.0947 -3.564 -3.18055e-015 -1.11319e-014 3.18055e-015 0.4882 -2.341 -0.6462 0.0144787 0.00365057 -0.00322867 0.3574 -1.7166 -0.4742 6.36111e-015 -7.15625e-015 -0 1.4199 -1.8761 1.4221 -3.18055e-015 -1.11319e-014 3.18055e-015 1.1472 -3.4929 2.6336 -3.18055e-015 -4.77083e-015 3.18055e-015 0.8229 -2.3 1.6571 3.18055e-015 -7.95139e-015 -6.36111e-015 -9.412 3.9771 -0.7758 0.58887 -21.934 5.40229 -0.7531 -40.938 0 56.9565 45.679 -49.7309 0 -40.1986 0 -7.13816 24.2046 -12.8207 0 -4.4182 9.239 7.95139e-015 -3.18055e-015 -6.36111e-015 9.4119 3.9773 -0.7758 3.08175 28.2354 0.276435 0.7532 -40.9383 1.42109e-014 -6.77167 63.9047 7.37293 1.11022e-015 -40.1986 0 5.62696 6.32073 0.861391 -4.44089e-016 -4.4182 9.239 1.0466e-005 -3.31712e-006 3.31244e-006 
